<svg width="78" height="29" viewBox="0 0 78 29" fill="none" xmlns="http://www.w3.org/2000/svg">
<path fill-rule="evenodd" clip-rule="evenodd" d="M11.997 21.9676C9.29986 22.9832 6.30004 22.8613 3.69621 21.6303L3.6954 21.6295C0.846847 20.3055 -0.282067 17.5345 0.0589522 14.5867C0.0799629 14.4021 0.111479 14.2198 0.147843 14.0375H3.89905C3.82825 14.5993 3.80447 15.166 3.82793 15.7316C3.73567 17.3924 4.91189 18.8595 6.56739 19.1486C8.11279 19.5763 9.76441 19.4104 11.1913 18.6842C12.6961 17.8758 13.286 14.8858 11.1162 13.7777C9.86696 13.233 8.57028 12.8016 7.24216 12.4889C7.10532 12.4468 6.96875 12.4039 6.83245 12.3602C6.21217 12.1961 5.6082 11.9767 5.02796 11.7046C3.36269 10.9416 2.24351 9.34862 2.10102 7.53846C1.62909 3.87839 3.89743 1.58625 6.52376 0.667639C9.19272 -0.325894 12.1548 -0.206469 14.7332 0.998627C17.5544 2.297 18.6712 5.01367 18.3333 7.90386C18.3156 8.05495 18.2913 8.20522 18.263 8.35395H14.5458C14.6077 7.83213 14.6286 7.30635 14.608 6.78135C14.6937 5.1458 13.528 3.70589 11.896 3.43148C10.3664 3.012 8.73342 3.17459 7.31893 3.88719C5.8304 4.67948 5.24615 7.61122 7.39408 8.69853C8.63104 9.23287 9.91409 9.65591 11.2277 9.96256C12.1446 10.2231 13.035 10.5679 13.8871 10.9922C15.0177 11.5933 15.8504 12.6258 16.1918 13.8497C16.3251 14.2086 16.4165 14.5815 16.4642 14.9609C16.9474 18.0714 15.0425 21.0593 11.997 21.9676ZM68.3077 28.9997C67.5675 28.9996 66.8331 28.8722 66.1371 28.6231C65.1214 28.2771 64.3458 27.4543 64.0675 26.4277C63.7109 25.1829 63.9365 23.8455 64.6825 22.7828C65.1695 22.1836 65.7609 21.6753 66.4288 21.2822C65.652 20.8778 64.9785 20.3037 64.4595 19.6032C63.4455 20.9012 62.043 21.8489 60.4521 22.3111C59.7175 22.5036 58.9615 22.6054 58.2015 22.6141C56.3415 22.653 54.5806 21.7865 53.4895 20.2956C53.4143 20.1997 53.3497 20.1533 53.2923 20.1533C53.2349 20.1533 53.1743 20.2172 53.1226 20.2844C53.1021 20.3123 53.08 20.339 53.0564 20.3643C52.0661 21.4211 50.773 22.153 49.3504 22.4622C48.8726 22.5663 48.3851 22.6199 47.8958 22.6221C47.299 22.6226 46.7054 22.5359 46.1342 22.3647C44.519 21.8675 43.3134 20.5283 43.0004 18.8837C42.6737 17.496 42.5674 16.0665 42.6852 14.6464C42.8382 11.3588 43.4142 8.10403 44.3992 4.96058C44.5269 4.55204 44.6966 4.41373 45.0716 4.41373H45.1524C45.5265 4.43132 45.9184 4.44011 46.3508 4.44011C46.7468 4.44011 47.1758 4.43292 47.7019 4.41693H47.7553C47.9168 4.41693 48.013 4.44331 48.059 4.50328C48.1051 4.56323 48.1076 4.67757 48.0526 4.87664C47.8493 5.60935 47.6589 6.35959 47.4749 7.08441L47.474 7.08803C47.3811 7.45579 47.2841 7.83638 47.1872 8.20728L47.1782 8.24968C47.1306 8.38314 47.1214 8.52708 47.1516 8.66541H48.2329H48.2384H49.3181C49.9945 8.66541 50.5432 8.66062 51.0459 8.65104H51.083C51.209 8.63471 51.3362 8.66996 51.4354 8.74859C51.5135 8.85923 51.5427 8.99667 51.5162 9.12916C51.4854 9.72303 51.4854 10.3181 51.5162 10.912C51.5367 11.0262 51.5093 11.1437 51.4402 11.2374C51.3455 11.3114 51.2242 11.3435 51.1048 11.3261H51.0821C50.9798 11.3261 50.8747 11.3251 50.7633 11.3239H50.7632H50.7631C50.638 11.3227 50.505 11.3213 50.3597 11.3213H49.685H49.58H48.7839C48.2182 11.3213 47.7553 11.3142 47.3382 11.299H47.2259C46.7411 11.299 46.5794 11.4588 46.5342 11.9953C46.5234 12.1131 46.5123 12.2312 46.5011 12.3494V12.3631C46.3074 13.9197 46.2582 15.4906 46.354 17.0561C46.3678 17.6689 46.5646 18.2639 46.9197 18.7662C47.2467 19.1514 47.739 19.3605 48.2466 19.3298C48.6356 19.3223 49.0216 19.2607 49.3932 19.1468C50.4237 18.7968 51.3519 18.2028 52.0971 17.4167C52.2203 17.2891 52.2639 17.1055 52.2111 16.9369C52.2111 16.9215 52.2085 16.9066 52.2061 16.892C52.2046 16.8831 52.2031 16.8745 52.2022 16.8658C51.7552 13.2281 52.2158 9.5375 53.5437 6.11665C54.1343 4.42483 55.259 2.96567 56.7518 1.95449C57.5988 1.45358 58.5629 1.17917 59.5495 1.1582C61.251 1.21963 62.6539 2.49796 62.8554 4.17069C63.1928 6.42293 62.8785 8.72366 61.9487 10.8065C60.7877 13.5143 58.8546 15.829 56.3857 17.4678C56.0835 17.6741 56.0456 17.8252 56.2176 18.141C56.6948 19.0629 57.6712 19.6251 58.7171 19.5801C58.8173 19.5801 58.9215 19.5761 59.0258 19.568C60.6444 19.4144 62.1456 18.6648 63.232 17.4678C63.3706 17.351 63.4329 17.168 63.3936 16.9922C63.1924 15.8018 63.1609 14.5894 63.2999 13.3904C63.4188 11.9033 63.7173 10.4357 64.1888 9.01877C64.2478 8.84526 64.2801 8.75014 64.5525 8.75014H64.5678C64.9015 8.75574 65.2676 8.75818 65.6853 8.75818H65.6856C66.0556 8.75818 66.4354 8.75818 66.8021 8.7542C67.1691 8.75014 67.5674 8.75014 67.9537 8.75014C67.9394 8.79709 67.919 8.84193 67.8931 8.88368C67.8773 8.9087 67.8645 8.93559 67.8551 8.96361C67.0485 11.2454 66.7508 13.6728 66.9823 16.0791C67.0158 17.3265 67.6824 18.4732 68.7553 19.1292C69.302 19.4276 69.9217 19.5696 70.5453 19.5393C70.8388 19.5393 71.1403 19.5205 71.4324 19.5023L71.4415 19.5017H71.448C71.6645 19.4889 71.6581 19.3594 71.6516 19.2339V19.1475C71.7693 16.6464 71.536 14.1412 70.9582 11.7035C70.7728 10.9092 70.5291 10.1868 70.2708 9.42094L70.2656 9.40575L70.265 9.40372L70.2649 9.40355C70.1925 9.18837 70.12 8.97328 70.0475 8.75257H73.0891C73.6475 8.75257 73.7995 8.84769 73.9434 9.28739C74.6133 11.3789 75.0104 13.5466 75.1248 15.7377C75.1567 16.3084 75.1492 16.8831 75.1412 17.4911V17.4913V17.4914L75.141 17.5118C75.141 17.6552 75.139 17.8007 75.137 17.9487V17.949V17.9495C75.135 18.1024 75.1329 18.258 75.1329 18.4168C76.1179 17.8876 76.9002 17.3999 77.9992 16.6835V19.3227C77.1501 19.9435 76.2564 20.5023 75.3252 20.9944C75.0936 21.0832 74.9317 21.2928 74.9058 21.5372C74.7055 23.456 73.9932 25.2875 72.8419 26.8442C71.7572 28.2282 70.0776 29.0267 68.3077 28.9997ZM71.359 22.2148L71.0923 22.2797L70.9114 22.3228L70.8904 22.3276L70.8349 22.3408H70.8349C70.5514 22.4087 70.2819 22.4732 70.0209 22.5483C69.7092 22.6342 69.4048 22.7438 69.1101 22.8761C68.4248 23.1208 67.8408 23.5832 67.4494 24.1912C67.1364 24.7535 67.1772 25.4437 67.5545 25.9661C67.8215 26.2053 68.1733 26.3305 68.5331 26.3147C68.7548 26.3162 68.9746 26.2741 69.1796 26.1907C69.5802 26.0197 69.9235 25.7397 70.1696 25.3832C70.7899 24.4234 71.1955 23.3434 71.359 22.2157V22.2148ZM58.1085 4.8631C58.3168 4.6183 58.6121 4.46179 58.9335 4.42578C59.0302 4.42635 59.1258 4.44479 59.2156 4.48015C59.6439 4.64564 59.6924 5.06618 59.7053 5.48271C59.7381 6.70517 59.5602 7.92425 59.1792 9.08763C58.5105 11.1559 57.2641 12.9949 55.584 14.3922C55.6309 12.982 55.7658 11.5759 55.988 10.1821C56.2095 8.80454 56.6194 7.4632 57.2066 6.19506C57.4235 5.70083 57.7291 5.24955 58.1085 4.8631ZM24.4221 22.6113C24.2443 22.6113 24.0601 22.6064 23.875 22.5961C22.782 22.5603 21.7138 22.2647 20.7606 21.7342C19.8136 21.1681 19.0475 20.3489 18.5504 19.3709C17.7865 17.8162 17.5129 16.0702 17.765 14.3597C17.9281 12.7121 18.6534 11.1685 19.8216 9.9833C20.9912 8.86793 22.5535 8.24636 24.1781 8.25002C25.0902 8.26131 25.9942 8.42011 26.8545 8.72009C27.9559 9.06841 28.9177 9.75269 29.602 10.6748C30.2569 11.6219 30.6763 12.7086 30.8263 13.8464C30.9529 14.847 30.9729 15.8581 30.8861 16.8629C30.8543 16.8821 30.8382 16.9018 30.8376 16.9221C30.8376 16.9404 30.8497 16.9589 30.8756 16.9764C30.8915 16.9659 30.9057 16.9529 30.9176 16.9381L30.9386 16.9165C31.702 16.7858 32.4339 16.5145 33.0962 16.117C33.3177 16.0011 33.3096 15.8395 33.3007 15.6684V15.5661V14.6012C33.3007 14.2113 33.301 13.8187 33.3012 13.424V13.4235V13.423C33.3022 12.0046 33.3032 10.5609 33.2918 9.13583C33.2712 8.9975 33.3044 8.85664 33.3847 8.7417C33.4743 8.67119 33.5887 8.63927 33.7023 8.65292H33.7565C34.1605 8.6673 34.584 8.67371 35.0534 8.67371C35.4753 8.67371 35.9287 8.66811 36.5226 8.65609H36.5533C36.6593 8.6409 36.7671 8.66981 36.8507 8.7361C36.9152 8.82472 36.9392 8.93609 36.917 9.04307C36.8986 9.34849 36.9024 9.6579 36.9063 9.9859L36.9065 9.99606V10.4574C37 10.3507 37.0872 10.2475 37.1719 10.1471L37.1722 10.1468L37.1901 10.1256C37.3808 9.90013 37.561 9.68746 37.7558 9.49397C38.5406 8.69459 39.6296 8.25928 40.7555 8.29477C41.0529 8.29591 41.3499 8.31752 41.6443 8.35951C41.8521 8.38827 41.8674 8.49622 41.8666 8.64569V10.9875V11.7653C41.703 11.7475 41.5396 11.725 41.3805 11.7032L41.3671 11.7014C41.0336 11.6466 40.6967 11.6151 40.3587 11.607C40.1856 11.606 40.0127 11.6205 39.8423 11.6502C38.4087 11.9068 37.4664 12.9358 37.1174 14.6267C36.973 15.3508 36.9033 16.0873 36.9097 16.8253V18.2644C36.9097 19.4581 36.9097 20.6916 36.9194 21.9045C36.9377 22.0215 36.9086 22.141 36.8386 22.237C36.7543 22.3021 36.6472 22.3309 36.5412 22.3171H36.4991C36.0434 22.3058 35.5723 22.3002 35.0995 22.3002C34.6268 22.3002 34.1589 22.3058 33.6773 22.3162H33.6441C33.5449 22.3275 33.4452 22.2988 33.3677 22.2363C33.3007 22.1453 33.2734 22.0315 33.2918 21.9205C33.304 21.2144 33.3026 20.5204 33.301 19.7914V19.791L33.3007 19.6627V19.6587V18.8033C33.1224 18.8582 32.9447 18.9231 32.7715 18.9865H32.7714V18.9865L32.7237 19.0039C32.3209 19.1747 31.8961 19.2894 31.4614 19.3445C30.5058 19.4367 29.6368 19.9321 29.0768 20.7037C27.896 22.0023 26.1852 22.7034 24.4221 22.6113ZM24.5669 11.1956C23.4927 11.2028 22.4967 11.7529 21.9268 12.6539C21.574 13.2423 21.3614 13.9027 21.3054 14.5846C21.0403 16.0144 21.3381 17.4905 22.1378 18.7101C22.7131 19.4501 23.6079 19.8781 24.5516 19.8645C25.2188 19.8775 25.8671 19.644 26.3698 19.2097C24.5935 18.6352 23.4593 16.9164 23.6424 15.0763C23.6539 14.3261 23.9252 13.6026 24.4109 13.0265C24.9483 12.4677 25.6462 12.0856 26.4102 11.932C26.3847 11.9108 26.3616 11.8905 26.3402 11.8717L26.3399 11.8715C26.3191 11.8533 26.2999 11.8365 26.2817 11.8216L26.2673 11.8092C26.2168 11.7656 26.1723 11.7273 26.1265 11.6929C25.6762 11.3618 25.128 11.187 24.5669 11.1956ZM27.1126 14.2969H27.166V14.2977C27.5886 14.2977 27.8197 14.5503 27.9183 15.1188C27.9304 15.1873 27.9396 15.2573 27.9479 15.3208L27.948 15.3209L27.9498 15.3346L27.9538 15.3666L27.9522 15.4034C27.9531 15.4109 27.9545 15.4184 27.9558 15.4258C27.9581 15.4382 27.9603 15.4503 27.9603 15.4617L27.9474 15.5753C27.9377 15.6608 27.9272 15.748 27.9175 15.8279L27.907 15.9167C27.8965 16.0151 27.8858 16.1116 27.8753 16.2071L27.8749 16.2109L27.8745 16.2137C27.8579 16.3655 27.8414 16.5146 27.8262 16.665C27.8075 16.8265 27.7551 16.8984 27.646 16.8984C27.5824 16.8951 27.5198 16.8813 27.4609 16.8577C26.7721 16.6218 26.3233 15.9645 26.3595 15.2443C26.3813 14.6799 26.6697 14.3169 27.1126 14.2969Z" fill="#DD2A3B"/>
</svg>
